<svg xmlns="http://www.w3.org/2000/svg" data-name="Layer 1" viewBox="0 0 916.02 916.02"><defs><radialGradient id="c" cx="186.26" cy="412.24" r="167.95" fx="186.26" fy="412.24" gradientTransform="matrix(1 0 0 -1 0 918)" gradientUnits="userSpaceOnUse"><stop offset="0" stop-color="#ff6399" stop-opacity=".55"/><stop offset=".2" stop-color="#ff6596" stop-opacity=".44"/><stop offset=".36" stop-color="#ff6c8c" stop-opacity=".35"/><stop offset=".51" stop-color="#ff767b" stop-opacity=".27"/><stop offset=".65" stop-color="#ff8663" stop-opacity=".19"/><stop offset=".79" stop-color="#ff9a44" stop-opacity=".12"/><stop offset=".92" stop-color="#ffb21f" stop-opacity=".05"/><stop offset="1" stop-color="#ffc403" stop-opacity="0"/></radialGradient><radialGradient id="d" cx="729.78" cy="412.24" r="167.95" fx="729.78" fy="412.24" gradientTransform="matrix(1 0 0 -1 0 918)" gradientUnits="userSpaceOnUse"><stop offset="0" stop-color="#ff6399" stop-opacity=".55"/><stop offset=".2" stop-color="#ff6596" stop-opacity=".44"/><stop offset=".36" stop-color="#ff6c8c" stop-opacity=".35"/><stop offset=".51" stop-color="#ff767b" stop-opacity=".27"/><stop offset=".65" stop-color="#ff8663" stop-opacity=".19"/><stop offset=".79" stop-color="#ff9a44" stop-opacity=".12"/><stop offset=".92" stop-color="#ffb21f" stop-opacity=".05"/><stop offset="1" stop-color="#ffc403" stop-opacity="0"/></radialGradient><linearGradient id="a" x1="458.01" x2="458.01" y1="1.98" y2="918" gradientTransform="matrix(1 0 0 -1 0 918)" gradientUnits="userSpaceOnUse"><stop offset="0" stop-color="#ff9500"/><stop offset=".19" stop-color="#ffad00"/><stop offset=".54" stop-color="#ffd500"/><stop offset=".83" stop-color="#ffed00"/><stop offset="1" stop-color="#fff600"/></linearGradient></defs><path d="M916.02 458.01c0-63.15-11.88-122.4-35.64-177.73-23.76-55.34-56.64-104-98.63-146-41.99-41.99-90.66-74.87-146-98.63C580.4 11.88 521.16 0 458.01 0s-122.4 11.88-177.73 35.64c-55.34 23.76-104 56.64-146 98.63-41.99 41.99-74.87 90.66-98.63 146C11.88 335.61 0 394.86 0 458.01s11.88 122.4 35.64 177.73c23.76 55.34 56.64 104 98.63 146 41.99 41.99 90.66 74.87 146 98.63S394.85 916.02 458 916.02s122.4-11.88 177.73-35.65c55.34-23.76 104-56.64 146-98.63s74.87-90.66 98.63-146S916 521.16 916 458.01" style="fill:url(#a)"/><path d="M354.22 505.76c0-23.16-4.36-44.88-13.07-65.17s-20.77-38.14-36.17-53.54-33.24-27.46-53.54-36.17c-20.29-8.71-42.02-13.07-65.18-13.07s-44.88 4.36-65.17 13.07-38.14 20.77-53.54 36.17-27.45 33.24-36.17 53.54c-8.71 20.29-13.07 42.02-13.07 65.17s4.36 44.88 13.07 65.18c8.71 20.29 20.77 38.14 36.17 53.54s33.24 27.45 53.54 36.17c20.29 8.71 42.02 13.07 65.17 13.07s44.88-4.36 65.18-13.07c20.29-8.71 38.14-20.77 53.54-36.17s27.45-33.24 36.17-53.54c8.71-20.29 13.07-42.02 13.07-65.18" style="fill:url(#c)"/><path d="M897.73 505.76c0-23.16-4.36-44.88-13.07-65.17s-20.77-38.14-36.17-53.54-33.24-27.46-53.54-36.17c-20.29-8.71-42.02-13.07-65.17-13.07s-44.88 4.36-65.18 13.07c-20.29 8.71-38.14 20.77-53.54 36.17s-27.45 33.24-36.17 53.54c-8.71 20.29-13.07 42.02-13.07 65.17s4.36 44.88 13.07 65.18c8.71 20.29 20.77 38.14 36.17 53.54s33.24 27.45 53.54 36.17c20.29 8.71 42.02 13.07 65.18 13.07s44.88-4.36 65.17-13.07 38.14-20.77 53.54-36.17 27.46-33.24 36.17-53.54c8.71-20.29 13.07-42.02 13.07-65.18" style="fill:url(#d)"/><path d="M649.41 536.13c-39.06 29.3-80.73 48.99-125 59.08q-66.405 15.135-132.81 0c-66.405-15.135-85.94-29.79-125-59.08-7.81-6.51-13.83-7.49-18.07-2.93-4.23 4.56-5.05 9.44-2.44 14.65q26.37 54.69 68.85 86.91c28.32 21.48 59.24 35.97 92.77 43.46q50.295 11.235 100.59 0c33.53-7.49 64.45-21.97 92.77-43.46 28.32-21.48 51.27-50.46 68.85-86.91 2.6-5.21 1.79-10.09-2.44-14.65s-10.25-3.58-18.07 2.93M209.96 382.81c32.55-41.67 61.85-62.5 87.89-62.5s55.34 20.83 87.89 62.5c5.21 6.51 11.39 8.3 18.55 5.37s9.77-7.65 7.81-14.16c-18.88-54.04-42.64-90.17-71.29-108.4s-57.29-18.23-85.94 0-52.41 54.36-71.29 108.4c-1.95 6.51.65 11.23 7.81 14.16s13.35 1.14 18.55-5.37m320.33 0c32.55-41.67 61.85-62.5 87.89-62.5s55.34 20.83 87.89 62.5c5.21 6.51 11.39 8.3 18.55 5.37s9.77-7.65 7.81-14.16c-18.88-54.04-42.64-90.17-71.29-108.4s-57.29-18.23-85.94 0-52.08 54.36-70.31 108.4c-2.6 6.51-.33 11.23 6.84 14.16 7.16 2.93 13.35 1.14 18.55-5.37" style="fill:#1a1626"/></svg>