<svg xmlns="http://www.w3.org/2000/svg" data-name="Layer 1" viewBox="0 0 916.02 916.02"><defs><linearGradient id="a" x1="458.01" x2="458.01" y1="1.98" y2="918" gradientTransform="matrix(1 0 0 -1 0 918)" gradientUnits="userSpaceOnUse"><stop offset="0" stop-color="#ff9500"/><stop offset=".19" stop-color="#ffad00"/><stop offset=".54" stop-color="#ffd500"/><stop offset=".83" stop-color="#ffed00"/><stop offset="1" stop-color="#fff600"/></linearGradient></defs><path d="M916.02 458.01c0-63.15-11.88-122.4-35.64-177.73-23.76-55.34-56.64-104-98.63-146-41.99-41.99-90.66-74.87-146-98.63C580.4 11.88 521.16 0 458.01 0s-122.4 11.88-177.73 35.64c-55.34 23.76-104 56.64-146 98.63-41.99 41.99-74.87 90.66-98.63 146C11.88 335.61 0 394.86 0 458.01s11.88 122.4 35.64 177.73c23.76 55.34 56.64 104 98.63 146 41.99 41.99 90.66 74.87 146 98.63S394.85 916.02 458 916.02s122.4-11.88 177.73-35.65c55.34-23.76 104-56.64 146-98.63s74.87-90.66 98.63-146S916 521.16 916 458.01" style="fill:url(#a)"/><path d="M373.05 440.43c-11.72 14.97-27.18 27.18-46.39 36.62s-39.88 15.14-62.01 17.09c-22.14 1.95-42.64-.65-61.52-7.81-6.51-2.6-12.69-1.95-18.55 1.95-5.86 3.91-7.16 7.81-3.91 11.72 16.28 20.83 35.97 34.51 59.08 41.02s46.22 6.67 69.34.49c23.11-6.19 43.13-17.9 60.06-35.16 16.93-17.25 27.34-38.9 31.25-64.94.65-5.21-2.6-7.98-9.77-8.3-7.16-.33-13.02 2.12-17.58 7.32m169.92 0c11.72 14.97 27.18 27.18 46.39 36.62s39.88 15.14 62.01 17.09c22.14 1.95 42.64-.65 61.52-7.81 6.51-2.6 12.7-1.95 18.55 1.95 5.86 3.91 7.16 7.81 3.91 11.72-16.28 20.83-35.97 34.51-59.08 41.02s-46.22 6.67-69.34.49c-23.11-6.19-43.13-17.9-60.06-35.16-16.93-17.25-27.34-38.9-31.25-64.94-.65-5.21 2.6-7.98 9.77-8.3 7.16-.33 13.02 2.12 17.58 7.32M349.61 750.98q28.32-19.53 67.38-26.37c26.04-4.56 52.41-4.72 79.1-.49s50.13 13.18 70.31 26.86c7.16 5.21 14.97 6.67 23.44 4.39q12.69-3.42 8.79-12.21c-13.67-28.65-33.2-50.13-58.59-64.45s-52.73-21.48-82.03-21.48-56.8 7.16-82.52 21.48-45.08 35.81-58.11 64.45q-3.9 8.79 8.79 12.21c8.46 2.28 16.28.81 23.44-4.39" style="fill:#1a1626"/></svg>