<svg xmlns="http://www.w3.org/2000/svg" id="a" data-name="Layer 1" viewBox="0 0 916.02 916.02"><defs><linearGradient id="b" x1="458.01" x2="458.01" y1="2.96" y2="918" gradientTransform="matrix(1 0 0 -1 0 918)" gradientUnits="userSpaceOnUse"><stop offset="0" stop-color="#ff9500"/><stop offset=".19" stop-color="#ffad00"/><stop offset=".54" stop-color="#ffd500"/><stop offset=".83" stop-color="#ffed00"/><stop offset="1" stop-color="#fff600"/></linearGradient><linearGradient id="d" x1="165.64" x2="288.18" y1="155.04" y2="250.77" gradientTransform="matrix(1 0 0 -1 0 918)" gradientUnits="userSpaceOnUse"><stop offset=".05" stop-color="#c4eeff" stop-opacity="0"/><stop offset=".44" stop-color="#e4f7ff" stop-opacity=".41"/><stop offset=".78" stop-color="#f8fdff" stop-opacity=".76"/><stop offset="1" stop-color="#fff"/></linearGradient><radialGradient id="c" cx="959.73" cy="619" r="88" fx="959.73" fy="556" gradientTransform="matrix(1 0 0 -1 0 918)" gradientUnits="userSpaceOnUse"><stop offset="0" stop-color="#73efff"/><stop offset=".19" stop-color="#6fecff"/><stop offset=".36" stop-color="#64e3ff"/><stop offset=".54" stop-color="#51d3ff"/><stop offset=".71" stop-color="#36bdff"/><stop offset=".87" stop-color="#14a1ff"/><stop offset=".96" stop-color="#0091ff"/></radialGradient><style>.i{fill:#1a1626}.j{fill:#fff}</style></defs><path d="M916.02 458.01c0-63.15-11.88-122.4-35.64-177.73-23.76-55.34-56.64-104-98.63-146-41.99-41.99-90.66-74.87-146-98.63C580.4 11.88 521.16 0 458.01 0s-122.4 11.88-177.73 35.64c-55.34 23.76-104 56.64-146 98.63-41.99 41.99-74.87 90.66-98.63 146C11.88 335.61 0 394.86 0 458.01s11.88 122.4 35.64 177.73c23.76 55.34 56.64 104 98.63 146 41.99 41.99 90.66 74.87 146 98.63S394.85 916.02 458 916.02s122.4-11.88 177.73-35.65c55.34-23.76 104-56.64 146-98.63s74.87-90.66 98.63-146S916 521.16 916 458.01" style="fill:url(#b)"/><path d="M732.7 442.76c0-14.73-2.77-28.56-8.32-41.47-5.54-12.91-13.21-24.26-23.01-34.06s-21.15-17.47-34.06-23.01-26.73-8.32-41.47-8.32-28.56 2.77-41.47 8.32c-12.91 5.54-24.27 13.21-34.06 23.01-9.8 9.8-17.47 21.15-23.01 34.06s-8.32 26.73-8.32 41.47 2.77 28.56 8.32 41.47c5.54 12.91 13.21 24.26 23.01 34.06s21.15 17.47 34.06 23.01 26.73 8.32 41.47 8.32 28.56-2.77 41.47-8.32c12.91-5.54 24.26-13.21 34.06-23.01s17.47-21.15 23.01-34.06 8.32-26.73 8.32-41.47" class="j"/><path d="M625.98 371.09c-27.99 0-48.83 12.04-62.5 36.13-14.32 23.44-14.32 47.2 0 71.29 13.67 24.09 34.51 35.81 62.5 35.16 19.53 0 36.3-6.84 50.29-20.51 14-13.67 21-30.6 21-50.78s-7-36.3-21-50.29c-14-14-30.76-21-50.29-21" class="i"/><path d="M644.32 457.21c-6.14 0-11.74 1.73-16.8 5.22s-9.1 8.12-12.11 13.89c-3.02 5.78-4.53 12.21-4.54 19.32 0 7.1 1.49 13.57 4.49 19.42 3 5.84 7.03 10.51 12.08 14.01s10.65 5.25 16.79 5.26c6.14 0 11.74-1.73 16.8-5.22s9.1-8.15 12.11-13.98q4.53-8.745 4.53-19.41c0-7.1-1.49-13.57-4.49-19.42s-7.03-10.48-12.08-13.92-10.65-5.16-16.79-5.16M619.14 442.38c0-5.86-1.95-11.07-5.86-15.62-3.91-4.56-8.46-6.84-13.67-6.84s-9.77 2.28-13.67 6.84-5.86 9.77-5.86 15.62c0 6.51 1.95 11.88 5.86 16.11s8.46 6.35 13.67 6.35 9.77-2.12 13.67-6.35c3.91-4.23 5.86-9.6 5.86-16.11M397 442.76c0-14.73-2.77-28.56-8.32-41.47-5.54-12.91-13.21-24.26-23.01-34.06s-21.15-17.47-34.06-23.01-26.73-8.32-41.47-8.32-28.56 2.77-41.47 8.32c-12.91 5.54-24.26 13.21-34.06 23.01s-17.47 21.15-23.01 34.06-8.32 26.73-8.32 41.47 2.77 28.56 8.32 41.47c5.54 12.91 13.21 24.26 23.01 34.06s21.15 17.47 34.06 23.01 26.73 8.32 41.47 8.32 28.55-2.77 41.47-8.32c12.91-5.54 24.27-13.21 34.06-23.01s17.47-21.15 23.01-34.06S397 457.5 397 442.76" class="j"/><path d="M290.28 371.09c-27.99 0-48.83 12.04-62.5 36.13-14.32 23.44-14.32 47.2 0 71.29 13.67 24.09 34.51 35.81 62.5 35.16 19.53 0 36.29-6.84 50.29-20.51s21-30.6 21-50.78-7-36.3-21-50.29c-14-14-30.76-21-50.29-21" class="i"/><path d="M308.63 457.21c-6.14 0-11.74 1.73-16.8 5.22s-9.1 8.12-12.11 13.89c-3.02 5.78-4.53 12.21-4.54 19.32 0 7.1 1.49 13.57 4.49 19.42 3 5.84 7.03 10.51 12.08 14.01s10.65 5.25 16.79 5.26c6.14 0 11.74-1.73 16.8-5.22s9.1-8.15 12.11-13.98c3.02-5.83 4.53-12.3 4.54-19.41 0-7.1-1.49-13.57-4.49-19.42-3-5.84-7.03-10.48-12.08-13.92s-10.65-5.16-16.79-5.16M283.46 442.38c0-5.86-1.95-11.07-5.86-15.62-3.91-4.56-8.46-6.84-13.67-6.84s-9.77 2.28-13.67 6.84c-3.91 4.56-5.86 9.77-5.86 15.62 0 6.51 1.95 11.88 5.86 16.11s8.46 6.35 13.67 6.35 9.77-2.12 13.67-6.35c3.91-4.23 5.86-9.6 5.86-16.11" class="j"/><path d="M349.64 751.22q28.32-19.53 67.38-26.37c26.04-4.56 52.41-4.72 79.1-.49s50.13 13.18 70.31 26.86c7.16 5.21 14.97 6.51 23.44 3.91 8.46-2.6 11.39-6.51 8.79-11.72q-19.53-43.95-58.11-65.43c-25.72-14.32-53.22-21.48-82.52-21.48s-56.8 7.32-82.52 21.97-45.08 36.3-58.1 64.94c-2.61 5.21.32 9.11 8.79 11.72 8.46 2.6 16.28 1.3 23.44-3.91" class="i"/><path d="M178.71 232.42c-32.55 27.99-52.25 49.48-59.08 64.45-6.84 14.97-4.23 23.44 7.81 25.39s30.6-1.79 55.66-11.23 53.22-24.58 84.47-45.41c16.93-11.07 26.04-22.46 27.34-34.18s-3.26-20.83-13.67-27.34c-10.42-6.51-24.74-8.14-42.97-4.88s-38.09 14.32-59.57 33.2m558.6 0c-21.48-18.23-41.34-29.13-59.57-32.71s-32.55-2.12-42.97 4.4c-10.42 6.51-14.97 15.62-13.67 27.34s10.42 23.11 27.34 34.18c31.25 20.83 59.41 35.97 84.47 45.41 25.07 9.44 43.62 13.18 55.66 11.23s14.65-10.25 7.81-24.9-26.53-36.3-59.08-64.94" style="fill:#d69600"/><path d="M241.99 609.32c-2.5-9.31-5.94-14.01-10.32-14.08-4.39-.07-7.82 4.59-10.29 13.99-9.52 25.01-23.94 53.83-43.27 86.46s-28.74 63.85-28.24 93.66c-.21 22.51 7.72 41.6 23.77 57.26s35.33 23.59 57.85 23.8c22.51.2 41.97-7.51 58.37-23.13s24.7-34.69 24.91-57.21c-.5-29.81-10.46-61.14-29.87-93.99q-29.115-49.275-42.9-86.76" style="fill:url(#c)"/><path d="M238.28 604.49c-1.3-3.91-3.58-5.86-6.84-5.86s-5.21 1.95-5.86 5.86c-3.91 13.67-9.76 29.78-17.58 48.34-7.81 18.56-15.14 37.44-21.97 56.64-6.84 19.2-10.25 36.95-10.25 53.22 0 14.32 5.7 25.07 17.09 32.23q17.085 10.74 39.06 10.74c21.975 0 27.67-3.58 39.06-10.74s17.09-17.9 17.09-32.23c0-16.28-3.42-34.02-10.25-53.22-6.84-19.21-14.16-38.09-21.97-56.64s-13.67-34.67-17.58-48.34" style="fill:url(#d)"/></svg>