<?xml version="1.0" encoding="UTF-8"?>
<svg id="a" xmlns="http://www.w3.org/2000/svg" xmlns:xlink="http://www.w3.org/1999/xlink" version="1.1" viewBox="0 0 976.6 976.8">
  <!-- Generator: Adobe Illustrator 30.3.0, SVG Export Plug-In . SVG Version: 2.1.1 Build 22)  -->
  <defs>
    <style>
      .st0 {
        fill: #fd7383;
      }

      .st1 {
        fill: url(#linear-gradient2);
      }

      .st2 {
        fill: url(#linear-gradient1);
      }

      .st3 {
        fill: url(#linear-gradient3);
      }

      .st4 {
        fill: url(#linear-gradient5);
      }

      .st5 {
        fill: url(#linear-gradient4);
      }

      .st6 {
        fill: #d69600;
      }

      .st7 {
        fill: #1a1626;
      }

      .st8 {
        fill: url(#radial-gradient);
      }

      .st9 {
        fill: url(#linear-gradient);
      }

      .st10 {
        fill: #75d6ff;
      }

      .st11 {
        fill: #0098f2;
      }

      .st12 {
        fill: url(#radial-gradient1);
      }
    </style>
    <linearGradient id="linear-gradient" x1="483.6" y1="962" x2="483.6" y2="46" gradientTransform="translate(0 -46)" gradientUnits="userSpaceOnUse">
      <stop offset="0" stop-color="#ff9500"/>
      <stop offset=".2" stop-color="#ffad00"/>
      <stop offset=".5" stop-color="#ffd500"/>
      <stop offset=".8" stop-color="#ffed00"/>
      <stop offset="1" stop-color="#fff600"/>
    </linearGradient>
    <linearGradient id="linear-gradient1" x1="412.1" y1="572.1" x2="554.7" y2="572.1" gradientTransform="translate(0 -46)" gradientUnits="userSpaceOnUse">
      <stop offset="0" stop-color="#cfd7e6"/>
      <stop offset="0" stop-color="#dae0ec"/>
      <stop offset=".1" stop-color="#eef1f6"/>
      <stop offset=".2" stop-color="#fbfcfd"/>
      <stop offset=".3" stop-color="#fff"/>
      <stop offset=".7" stop-color="#fff"/>
      <stop offset=".8" stop-color="#fbfcfd"/>
      <stop offset=".9" stop-color="#eef1f6"/>
      <stop offset="1" stop-color="#dae0ec"/>
      <stop offset="1" stop-color="#cfd7e6"/>
    </linearGradient>
    <linearGradient id="linear-gradient2" x1="751" y1="334.3" x2="626.8" y2="948.6" gradientTransform="translate(0 -46)" gradientUnits="userSpaceOnUse">
      <stop offset="0" stop-color="#0078bd"/>
      <stop offset="0" stop-color="#2e94cd"/>
      <stop offset="0" stop-color="#5aafdc"/>
      <stop offset="0" stop-color="#7ec5e9"/>
      <stop offset="0" stop-color="#9bd6f2"/>
      <stop offset=".1" stop-color="#afe2f9"/>
      <stop offset=".1" stop-color="#bbeafe"/>
      <stop offset=".1" stop-color="#bfecff"/>
      <stop offset=".2" stop-color="#b0e8ff"/>
      <stop offset=".2" stop-color="#9ae1ff"/>
      <stop offset=".2" stop-color="#8adcff"/>
      <stop offset=".2" stop-color="#7ed9ff"/>
      <stop offset=".3" stop-color="#77d7ff"/>
      <stop offset=".4" stop-color="#75d6ff"/>
      <stop offset=".5" stop-color="#4abffa"/>
      <stop offset=".7" stop-color="#22aaf6"/>
      <stop offset=".8" stop-color="#099df3"/>
      <stop offset=".8" stop-color="#0098f2"/>
    </linearGradient>
    <radialGradient id="radial-gradient" cx="-812" cy="-28" fx="-812" fy="-28" r="111" gradientTransform="translate(0 -46)" gradientUnits="userSpaceOnUse">
      <stop offset=".2" stop-color="#fff"/>
      <stop offset=".9" stop-color="#fff" stop-opacity="0"/>
    </radialGradient>
    <linearGradient id="linear-gradient3" x1="699.3" y1="954.4" x2="699.3" y2="907.5" gradientTransform="translate(0 -46)" gradientUnits="userSpaceOnUse">
      <stop offset="0" stop-color="#0098f2"/>
      <stop offset=".3" stop-color="#1ca7f5"/>
      <stop offset=".9" stop-color="#63ccfd"/>
      <stop offset="1" stop-color="#75d6ff"/>
    </linearGradient>
    <linearGradient id="linear-gradient4" x1="215.8" y1="334.3" x2="340" y2="948.5" gradientTransform="translate(0 -46)" gradientUnits="userSpaceOnUse">
      <stop offset="0" stop-color="#0078bd"/>
      <stop offset="0" stop-color="#2e94cd"/>
      <stop offset="0" stop-color="#5aafdc"/>
      <stop offset="0" stop-color="#7ec5e9"/>
      <stop offset="0" stop-color="#9bd6f2"/>
      <stop offset=".1" stop-color="#afe2f9"/>
      <stop offset=".1" stop-color="#bbeafe"/>
      <stop offset=".1" stop-color="#bfecff"/>
      <stop offset=".2" stop-color="#b0e8ff"/>
      <stop offset=".2" stop-color="#9ae1ff"/>
      <stop offset=".2" stop-color="#8adcff"/>
      <stop offset=".2" stop-color="#7ed9ff"/>
      <stop offset=".3" stop-color="#77d7ff"/>
      <stop offset=".4" stop-color="#75d6ff"/>
      <stop offset=".5" stop-color="#4abffa"/>
      <stop offset=".7" stop-color="#22aaf6"/>
      <stop offset=".8" stop-color="#099df3"/>
      <stop offset=".8" stop-color="#0098f2"/>
    </linearGradient>
    <radialGradient id="radial-gradient1" cx="324" cy="-28" fx="324" fy="-28" r="111" gradientTransform="translate(0 -46)" gradientUnits="userSpaceOnUse">
      <stop offset=".2" stop-color="#fff"/>
      <stop offset=".9" stop-color="#fff" stop-opacity="0"/>
    </radialGradient>
    <linearGradient id="linear-gradient5" x1="267.5" y1="954.4" x2="267.5" y2="907.5" gradientTransform="translate(0 -46)" gradientUnits="userSpaceOnUse">
      <stop offset="0" stop-color="#0098f2"/>
      <stop offset=".3" stop-color="#1ca7f5"/>
      <stop offset=".9" stop-color="#63ccfd"/>
      <stop offset="1" stop-color="#75d6ff"/>
    </linearGradient>
  </defs>
  <path class="st11" d="M706,867.4h-445.3c-30.6,0-61,.7-91.3,2s-58.1,3.4-83.5,6.3-45.9,6.2-61.5,9.8c-15.6,3.6-23.8,7.7-24.4,12.2v2c.6,2,3.3,4.2,7.8,6.8,9.8,5.2,23.4,9,41,11.2s36.6,3.9,57.1,4.9c20.5,1,40.2,1.8,59.1,2.4,22.1.7,41.2,1.5,57.1,2.4s25.1,2.9,27.3,5.9c2.3,2.9-6,8-24.9,15.1-16.3,5.9-22.9,10.9-20,15.1,2.9,4.2,12.2,7.5,27.8,9.8s34.8,3.4,57.6,3.4h15.6c29.3,0,59.7-1.6,91.3-4.9,31.6-3.3,57.5-8.1,77.6-14.7,15-4.6,32.7-6.5,53.2-5.9,20.5.7,41.8,2,64,3.9,30.6,2.6,60.2,3.9,88.9,3.9s51.1-7.2,67.4-21.5c13.7-13,32.5-20.5,56.6-22.5s48.5-2.9,73.2-2.9,30.4-.2,44.4-.5c14-.3,26.2-2.1,36.6-5.4,11.7-3.3,17.6-6.5,17.6-9.8s-8.5-7.7-25.4-11.2-38.9-6.7-65.9-9.3c-27-2.6-56.3-4.7-87.9-6.3s-62-2.4-91.3-2.4"/>
  <path class="st9" d="M941.6,458c0-63.1-11.9-122.4-35.7-177.7-23.8-55.3-56.6-104-98.6-146-42-42-90.7-74.9-146-98.6C606,11.9,546.7,0,483.5,0s-122.4,11.9-177.7,35.6c-55.3,23.8-104,56.6-146,98.6-42,42-74.9,90.7-98.6,146s-35.6,114.6-35.6,177.7,11.9,122.4,35.6,177.7c23.8,55.3,56.6,104,98.6,146,42,42,90.7,74.9,146,98.6,55.3,23.8,114.6,35.7,177.7,35.7s122.4-11.9,177.7-35.7c55.3-23.8,104-56.6,146-98.6s74.9-90.7,98.6-146,35.7-114.6,35.7-177.7"/>
  <path class="st7" d="M590.8,612.5v-19.5c0-29.3-7.3-52.7-22-70.3s-32.5-29.3-53.7-35.2c-21.2-5.9-42.3-5.9-63.5,0-21.2,5.9-38.9,17.6-53.2,35.2-14.3,17.6-21.5,41-21.5,70.3v19.5c0,29.3,7.2,52.9,21.5,70.8,14.3,17.9,32.1,29.8,53.2,35.6,21.2,5.9,42.3,5.9,63.5,0,21.2-5.9,39.1-17.7,53.7-35.6s22-41.5,22-70.8"/>
  <path class="st2" d="M412.1,549.1h142.6c-7.2-13.7-16.9-24.7-29.3-33.2s-26.4-12.7-42-12.7-28.8,4.2-41.5,12.7c-12.7,8.5-22.6,19.5-29.8,33.2"/>
  <path class="st0" d="M427.7,680.9c16.9,13,35.5,19.5,55.7,19.5s39.1-6.5,56.6-19.5l-8.3-8.3c-5.5-5.5-12.5-9.6-21-12.2-8.5-2.6-17.6,0-27.3,7.8-9.1-7.8-17.9-10.4-26.4-7.8-8.5,2.6-15.5,6.7-21,12.2l-8.3,8.3"/>
  <path class="st7" d="M571.3,346.9c15-11.1,33-18.7,54.2-23s42.6-4.6,64.5-1,40.8,11.6,57.1,23.9c5.9,3.9,12.2,4.9,19,2.9,6.8-2,9.3-5.5,7.3-10.7-11.1-24.1-26.9-42.3-47.4-54.7-20.5-12.4-42.8-18.6-66.9-18.6s-46.4,6.2-66.9,18.6c-20.5,12.4-36.3,30.6-47.4,54.7-2,5.2.5,8.8,7.3,10.7,6.8,2,13.2,1,19-2.9M396.5,346.9c-15.6-11.1-34-18.7-55.2-23s-42.5-4.6-64-1-40.7,11.6-57.6,23.9c-5.2,3.9-11.2,4.9-18.1,2.9-6.8-2-9.3-5.5-7.3-10.7,10.4-24.1,26-42.3,46.9-54.7,20.8-12.4,43.1-18.6,66.9-18.6s46.1,6.2,66.9,18.6c20.8,12.4,36.5,30.6,46.9,54.7,1.9,5.2-.5,8.8-7.3,10.7-6.8,2-12.9,1-18.1-2.9"/>
  <path class="st10" d="M635.7,891.8c0-3.9-1.8-5.9-5.4-5.9s-5.4,2-5.4,5.9,1.8,5.9,5.4,5.9,5.4-2,5.4-5.9"/>
  <path class="st1" d="M627,323.5c8.5,56.6,14.5,108.6,18.1,155.8s4.6,93.1,2.9,137.7-5,90.7-10.2,138.2c-5.2,47.5-11.7,99.6-19.5,156.2,11.7-3.9,24.6-5.5,38.6-4.9,14,.7,28.2.8,42.5.5,14.3-.3,27.7-3.7,40-10.2,13-37.8,23.1-80.2,30.3-127.4,7.2-47.2,11.4-95.9,12.7-146,1.3-50.1-.3-99-4.9-146.5-4.6-47.5-12.4-89.8-23.4-127-5.2-9.1-14.2-16.8-26.8-23-12.7-6.2-26.2-10.6-40.5-13.2s-27.2-3.1-38.6-1.5-18.4,5.4-21,11.2"/>
  <path class="st11" d="M767,869.5c0-11-3.9-18.3-11.8-21.8s-15.8-3.5-23.9,0c-8.1,3.5-12.2,10.7-12.2,21.8s4.1,17.4,12.2,20.9,16.1,3.5,23.9,0,11.8-10.5,11.8-20.9"/>
  <path class="st11" d="M797.1,880c0-8.5-3-14-9-16.7-6-2.7-12.1-2.7-18.3,0-6.2,2.7-9.3,8.2-9.3,16.7s3.1,13.3,9.3,16c6.2,2.7,12.3,2.7,18.3,0s9-8,9-16"/>
  <path class="st8" d="M590.8,900.6h198.2c0-30.6-6.7-55-20-73.2s-29.8-30.4-49.3-36.6-39.2-6.2-59.1,0c-19.9,6.2-36.5,18.4-49.8,36.6-13.3,18.2-20,42.6-20,73.2"/>
  <path class="st10" d="M658.2,845c0-5.2-2.9-7.8-8.8-7.8s-8.8,2.6-8.8,7.8,2.9,8.8,8.8,8.8c8.8,0,8.8-2.9,8.8-8.8"/>
  <path class="st3" d="M763.7,892.8c0-10.4-4.6-16.1-13.7-17.1s-16.3,1.8-21.5,8.3c-2.6-9.1-7.7-15.5-15.1-19s-15.1-4.4-23-2.4-14,6.5-18.5,13.7c-4.6-6.5-12.5-9-23.9-7.3-11.4,1.6-18.1,7-20,16.1-3.9-1.9-9.3-.8-16.1,3.4-10.2,6.3-9.3,9-7.3,14.2.7,1.3,7.3,2.4,20,3.4,12.7,1,28.3,1.6,46.9,2,18.5.3,37.3.5,56.2.5s34.7-.5,47.4-1.5c12.7-1,19.4-2.1,20-3.4,1.3-5.9-.3-10.2-4.9-13.2s-9.8-4.2-15.6-3.9c-5.9.3-9.4,2.4-10.7,6.3"/>
  <path class="st10" d="M775.4,877.2c0-3.3-1.5-4.9-4.4-4.9s-4.4,1.6-4.4,4.9,1.5,3.9,4.4,3.9,4.4-1.3,4.4-3.9M695.3,821.5c0-2.6-1.5-3.9-4.4-3.9s-4.4,1.3-4.4,3.9,1.5,3.9,4.4,3.9,4.4-1.3,4.4-3.9M709,889.9c0-3.3-1.5-4.9-4.4-4.9s-4.1,1.6-3.4,4.9c0,2.6,1.3,3.9,3.9,3.9s3.9-1.3,3.9-3.9M800.8,893.8c0-2.6-1.5-3.9-4.4-3.9s-4.4,1.3-4.4,3.9,1.5,3.9,4.4,3.9,4.4-1.3,4.4-3.9M721.7,849.8c0-3.9-2.1-5.9-6.3-5.9s-6.3,2-6.3,5.9,2.1,5.9,6.3,5.9,6.3-2,6.3-5.9M647.5,899.7c0-3.9-2.1-5.9-6.3-5.9s-6.3,2-6.3,5.9,2.1,6.8,6.3,6.8,6.3-2.3,6.3-6.8"/>
  <path class="st5" d="M339.8,323.5c-2.6-5.9-9.6-9.6-21-11.2-11.4-1.6-24.2-1.1-38.6,1.5s-27.8,7-40.5,13.2-21.6,13.8-26.9,23c-11.1,37.1-18.9,79.4-23.4,127-4.6,47.5-6.2,96.3-4.9,146.5s5.5,98.8,12.7,146c7.2,47.2,17.2,89.7,30.3,127.4,12.4,6.5,25.7,9.9,40,10.2,14.3.3,28.6.2,43-.5s27.3,1,39.1,4.9c-8.5-56.6-15.3-108.7-20.5-156.2s-8.5-93.6-9.8-138.2c-1.3-44.6-.3-90.5,2.9-137.7,3.3-47.2,9.1-99.1,17.6-155.8"/>
  <path class="st11" d="M200.2,869.4c0,10.4,4.1,17.4,12.2,21,8.1,3.6,16.1,3.6,23.9,0,7.8-3.6,11.7-10.6,11.7-21s-4.1-17.4-12.2-21-16.1-3.6-23.9,0c-7.8,3.6-11.7,10.6-11.7,21"/>
  <path class="st11" d="M169.9,880.1c0,7.8,3.1,13,9.3,15.6s12.4,2.6,18.6,0,9.3-7.8,9.3-15.6-3.1-14-9.3-16.6c-6.2-2.6-12.4-2.6-18.6,0s-9.3,8.1-9.3,16.6"/>
  <path class="st12" d="M376,900.6c0-30.6-6.7-55-20-73.2s-29.8-30.4-49.3-36.6-39.2-6.2-59.1,0c-19.9,6.2-36.5,18.4-49.8,36.6s-20,42.6-20,73.2h198.2"/>
  <path class="st10" d="M293,846c0,5.9,2.9,8.8,8.8,8.8,8.8,0,8.8-2.9,8.8-8.8s-2.9-8.8-8.8-8.8-8.8,2.9-8.8,8.8"/>
  <path class="st4" d="M204.1,892.8c-1.9-3.9-5.9-6-11.7-6.3s-11.1,1-15.6,3.9c-4.6,2.9-5.9,7.3-3.9,13.2,0,1.3,6.5,2.4,19.5,3.4s28.8,1.5,47.4,1.5,37.3-.2,56.2-.5,34.7-1,47.4-2c12.7-1,19-2.1,19-3.4,1.9-5.2-.3-9.9-6.8-14.2-6.5-4.2-11.7-5.4-15.6-3.4-2-9.1-8.6-14.5-20-16.1-11.4-1.6-19.7.8-24.9,7.3-3.9-7.2-9.9-11.7-18.1-13.7s-16-1.1-23.4,2.4-12.2,9.9-14.2,19c-5.2-6.5-12.4-9.3-21.5-8.3-9.1,1-13.7,6.7-13.7,17.1"/>
  <path class="st10" d="M216.8,861.6c0,2.6,1.3,3.9,3.9,3.9s3.9-1.3,3.9-3.9-1.3-3.9-3.9-3.9-3.9,1.3-3.9,3.9M247.1,841.1c0,3.3,1.5,4.9,4.4,4.9s4.4-1.6,4.4-4.9-1.5-3.9-4.4-3.9-4.4,1.3-4.4,3.9M308.6,892.8c0,3.3,1.5,4.9,4.4,4.9s4.4-1.6,4.4-4.9-1.5-3.9-4.4-3.9-4.4,1.3-4.4,3.9M168,892.8c0,3.3,1.3,4.9,3.9,4.9s3.9-1.6,3.9-4.9-1.3-3.9-3.9-3.9-3.9,1.3-3.9,3.9M255.9,887c0,3.9,2.1,5.9,6.3,5.9s6.4-2,6.4-5.9-2.1-6.8-6.4-6.8-6.4,2.3-6.4,6.8"/>
  <path d="M681.6,334.2c5.2,35.2,9.4,67.4,12.7,96.7s5.4,57.9,6.3,85.9c1,28,1.1,57.5.5,88.4-.7,30.9-1.6,65.9-2.9,105,0,3.3.5,2.9,1.5-1,1-3.9,2.1-10.4,3.4-19.5,3.9-24.1,6.3-51.4,7.3-82,1-30.6,1-62.2,0-94.7-1-32.5-3.1-64-6.3-94.2-3.3-30.3-7.8-57.1-13.7-80.6-2-7.2-4.2-11.2-6.8-12.2-2.6-1-3.3,1.8-2,8.3M733.4,369.4c7.8,44.3,13.5,83.8,17.1,118.6s5.5,70.3,5.9,106.4c.3,36.1-.2,78.3-1.5,126.5,0,3.3.5,3.1,1.5-.5s2.1-9.6,3.4-18.1c3.9-30,6-65.1,6.3-105.5.3-40.4-1.5-80.4-5.4-120.1-3.9-39.7-10.1-74.2-18.5-103.5-2-6.5-4.2-10.1-6.8-10.7-2.6-.6-3.3,1.6-2,6.8M658.2,392.8c6.5,44.9,10.6,85,12.2,120.1,1.6,35.2,1.8,71,.5,107.4s-3.9,78.8-7.8,127c0,3.3.7,3.1,2-.5s2.6-9.6,3.9-18.1c4.6-22.1,8-47.7,10.2-76.7,2.3-29,3.4-58.8,3.4-89.4s-1.3-60.2-3.9-88.9c-2.6-28.6-6.5-54-11.7-76.2-1.3-6.5-3.3-10.2-5.9-11.2s-3.6,1.1-2.9,6.4M726.6,483.6c2.6,42.3,3.3,80.1,2,113.3s-4.2,66.9-8.8,101.1c-4.6,34.2-10.4,73.7-17.6,118.7-.7,3.3-.3,3.1,1-.5s3.3-9,5.9-16.1c7.8-28,14.5-60.9,20-98.6s9-75.7,10.2-113.8,0-71.1-3.9-99.1c-1.3-6.5-3.1-10.2-5.4-11.2s-3.4,1.1-3.4,6.4M286.1,334.2c-5.9,35.2-10.4,67.4-13.7,96.7s-5.4,57.9-6.4,85.9c-1,28-1.1,57.5-.5,88.4.6,30.9,1.6,65.9,2.9,105,0,3.3-.5,2.9-1.5-1-1-3.9-2.1-10.4-3.4-19.5-3.3-24.1-5.5-51.4-6.8-82s-1.5-62.2-.5-94.7c1-32.5,3.1-64,6.4-94.2,3.3-30.3,8.1-57.1,14.6-80.6,1.3-7.2,3.3-11.2,5.9-12.2s3.6,1.8,2.9,8.3M234.4,369.4c-8.5,44.3-14.5,83.8-18.1,118.6s-5.5,70.3-5.9,106.4c-.3,36.1.2,78.3,1.5,126.5,0,3.3-.5,3.1-1.5-.5-1-3.6-1.8-9.6-2.4-18.1-4.6-30-7-65.1-7.3-105.5-.3-40.4,1.6-80.4,5.9-120.1,4.2-39.7,10.2-74.2,18.1-103.5,1.9-6.5,4.2-10.1,6.8-10.7,2.6-.6,3.6,1.6,2.9,6.8M308.6,392.8c-5.9,44.9-9.8,85-11.7,120.1-2,35.2-2.3,71-1,107.4s3.9,78.8,7.8,127c0,3.3-.5,3.1-1.5-.5-1-3.6-2.4-9.6-4.4-18.1-3.9-22.1-7-47.7-9.3-76.7s-3.4-58.8-3.4-89.4,1.1-60.2,3.4-88.9,6-54,11.2-76.2c1.3-6.5,3.3-10.2,5.9-11.2s3.6,1.1,2.9,6.4M240.2,483.6c-1.9,42.3-2.4,80.1-1.5,113.3s3.7,66.9,8.3,101.1,10.7,73.7,18.6,118.7c.6,3.3.2,3.1-1.5-.5-1.6-3.6-3.4-8.9-5.4-16.1-8.5-28-15.5-60.9-21-98.6s-8.9-75.7-10.2-113.8.3-71.1,4.9-99.1c.6-6.5,2.3-10.2,4.9-11.2s3.6,1.1,2.9,6.4"/>
  <path class="st6" d="M283.2,133.1c-35.2,25.4-56.8,45.1-64.9,59.1s-6.2,22.6,5.9,25.9c12,3.2,30.9,1.1,56.6-6.4s54.9-20,87.4-37.6c18.2-10.4,28.5-21.3,30.8-32.7,2.3-11.4-1.5-20.7-11.2-27.8s-23.8-9.9-42-8.3-39.1,10.9-62.5,27.8M683.6,133.1c-23.4-16.3-44.3-25.4-62.5-27.3s-32.2.8-42,8.3c-9.8,7.5-13.5,16.9-11.2,28.3s12.5,22,30.8,31.7c32.5,17.6,61.7,30.1,87.4,37.6s44.6,9.6,56.6,6.4c12-3.3,14-11.9,5.9-25.9s-29.8-33.7-64.9-59.1"/>
</svg>