<svg xmlns="http://www.w3.org/2000/svg" id="a" data-name="Layer 1" viewBox="0 0 916.02 916.02"><defs><linearGradient id="b" x1="458.01" x2="458.01" y1="1.98" y2="918" gradientTransform="matrix(1 0 0 -1 0 918)" gradientUnits="userSpaceOnUse"><stop offset="0" stop-color="#ff9500"/><stop offset=".19" stop-color="#ffad00"/><stop offset=".54" stop-color="#ffd500"/><stop offset=".83" stop-color="#ffed00"/><stop offset="1" stop-color="#fff600"/></linearGradient><style>.d{fill:#1a1626}</style></defs><path d="M916.02 458.01c0-63.15-11.88-122.4-35.64-177.73-23.76-55.34-56.64-104-98.63-146-41.99-41.99-90.66-74.87-146-98.63C580.4 11.88 521.16 0 458.01 0s-122.4 11.88-177.73 35.64c-55.34 23.76-104 56.64-146 98.63-41.99 41.99-74.87 90.66-98.63 146C11.88 335.61 0 394.86 0 458.01s11.88 122.4 35.64 177.73c23.76 55.34 56.64 104 98.63 146 41.99 41.99 90.66 74.87 146 98.63S394.85 916.02 458 916.02s122.4-11.88 177.73-35.65c55.34-23.76 104-56.64 146-98.63s74.87-90.66 98.63-146S916 521.16 916 458.01" style="fill:url(#b)"/><path d="M282.23 687.5c35.81-20.83 74.06-34.67 114.75-41.5s81.38-6.84 122.07 0 78.94 20.67 114.75 41.5c7.81 4.56 12.53 5.37 14.16 2.44s1.14-6.35-1.47-10.25c-15.62-25.39-36.13-45.74-61.52-61.04s-52.9-25.39-82.52-30.27-59.25-4.88-88.87 0-57.13 14.97-82.52 30.27-45.9 35.65-61.52 61.04c-2.6 3.91-3.09 7.32-1.46 10.25s6.35 2.12 14.16-2.44M366.21 366.82q0-32.22-17.58-54.69c-11.72-14.97-26.04-22.46-42.97-22.46s-31.41 7.49-43.46 22.46c-12.04 14.97-18.07 33.2-18.07 54.69s6.02 38.74 18.07 53.71c12.04 14.97 26.53 22.46 43.46 22.46s31.25-7.49 42.97-22.46 17.58-32.88 17.58-53.71M671.39 366.82q0-32.22-17.58-54.69c-11.72-14.97-26.04-22.46-42.97-22.46s-31.41 7.49-43.46 22.46c-12.04 14.97-18.07 33.2-18.07 54.69s6.02 38.74 18.07 53.71c12.04 14.97 26.53 22.46 43.46 22.46s31.25-7.49 42.97-22.46 17.58-32.88 17.58-53.71" class="d"/></svg>