<svg xmlns="http://www.w3.org/2000/svg" id="a" data-name="Layer 1" viewBox="0 0 916.02 916.02"><defs><linearGradient id="b" x1="458.01" x2="458.01" y1="1.98" y2="918" gradientTransform="matrix(1 0 0 -1 0 918)" gradientUnits="userSpaceOnUse"><stop offset="0" stop-color="#ff9500"/><stop offset=".19" stop-color="#ffad00"/><stop offset=".54" stop-color="#ffd500"/><stop offset=".83" stop-color="#ffed00"/><stop offset="1" stop-color="#fff600"/></linearGradient><linearGradient id="c" x1="213.87" x2="702.15" y1="345.73" y2="345.73" gradientTransform="matrix(1 0 0 -1 0 918)" gradientUnits="userSpaceOnUse"><stop offset="0" stop-color="#cfd7e6"/><stop offset=".04" stop-color="#dae0ec"/><stop offset=".13" stop-color="#eef1f6"/><stop offset=".22" stop-color="#fbfcfd"/><stop offset=".3" stop-color="#fff"/><stop offset=".7" stop-color="#fff"/><stop offset=".78" stop-color="#fbfcfd"/><stop offset=".87" stop-color="#eef1f6"/><stop offset=".96" stop-color="#dae0ec"/><stop offset="1" stop-color="#cfd7e6"/></linearGradient><style>.g{fill:#1a1626}</style></defs><path d="M916.02 458.01c0-63.15-11.88-122.4-35.64-177.73-23.76-55.34-56.64-104-98.63-146-41.99-41.99-90.66-74.87-146-98.63C580.4 11.88 521.16 0 458.01 0s-122.4 11.88-177.73 35.64c-55.34 23.76-104 56.64-146 98.63-41.99 41.99-74.87 90.66-98.63 146C11.88 335.61 0 394.86 0 458.01s11.88 122.4 35.64 177.73c23.76 55.34 56.64 104 98.63 146 41.99 41.99 90.66 74.87 146 98.63S394.85 916.02 458 916.02s122.4-11.88 177.73-35.65c55.34-23.76 104-56.64 146-98.63s74.87-90.66 98.63-146S916 521.16 916 458.01" style="fill:url(#b)"/><path d="M366.21 351.56q0-32.22-17.58-54.69c-11.72-14.97-26.04-22.46-42.97-22.46s-31.41 7.49-43.46 22.46c-12.04 14.97-18.07 33.2-18.07 54.69s6.02 38.74 18.07 53.71c12.04 14.97 26.53 22.46 43.46 22.46s31.25-7.49 42.97-22.46 17.58-32.88 17.58-53.71M671.39 351.56q0-32.22-17.58-54.69c-11.72-14.97-26.04-22.46-42.97-22.46s-31.41 7.49-43.46 22.46c-12.04 14.97-18.07 33.2-18.07 54.69s6.02 38.74 18.07 53.71c12.04 14.97 26.53 22.46 43.46 22.46s31.25-7.49 42.97-22.46 17.58-32.88 17.58-53.71M690.43 524.41c-27.99-5.21-61.36-9.93-100.1-14.16s-82.84-6.35-132.32-6.35-93.75 2.12-132.81 6.35-72.27 8.95-99.61 14.16c-14.32 2.6-25.06 8.95-32.23 19.04-7.16 10.09-10.42 21-9.77 32.72 1.95 39.06 13.51 75.2 34.67 108.4s51.6 59.73 91.31 79.59q59.565 29.79 148.44 29.79c88.875 0 108.72-9.93 148.44-29.79 39.71-19.86 70.15-46.39 91.31-79.59s32.72-69.34 34.67-108.4c.65-11.72-2.6-22.62-9.77-32.72-7.16-10.09-17.9-16.44-32.23-19.04" class="g"/><path d="M328.12 732.42s5.7 2.6 17.09 7.81 27.02 10.25 46.88 15.14c19.86 4.88 41.83 7.32 65.92 7.32s45.9-2.44 65.43-7.32 35.16-9.93 46.88-15.14 17.58-7.81 17.58-7.81l-14.16-10.74c-9.44-7.16-23.93-13.51-43.46-19.04s-43.62-5.7-72.27-.49c-28.65-5.21-52.73-5.04-72.27.49-19.53 5.53-34.02 11.88-43.46 19.04z" style="fill:#fd7383"/><path d="M679.69 552.73c-19.53-3.26-48.66-7.16-87.4-11.72q-58.11-6.84-134.28-6.84c-76.17 0-95.54 2.28-134.28 6.84s-67.87 8.46-87.4 11.72c-11.72 2.6-18.55 6.67-20.51 12.21q-2.925 8.295 0 22.95c1.3 9.11 3.09 15.14 5.37 18.07s7.98 4.4 17.09 4.4h439.45c9.11 0 14.81-1.46 17.09-4.4 2.28-2.93 4.07-8.95 5.37-18.07q2.925-14.655 0-22.95c-1.95-5.53-8.79-9.6-20.51-12.21" style="fill:url(#c)"/></svg>