<svg xmlns="http://www.w3.org/2000/svg" id="a" data-name="Layer 1" viewBox="0 0 916.02 916.02"><defs><linearGradient id="b" x1="458.01" x2="458.01" y1="1.98" y2="918" gradientTransform="matrix(1 0 0 -1 0 918)" gradientUnits="userSpaceOnUse"><stop offset="0" stop-color="#ff9500"/><stop offset=".19" stop-color="#ffad00"/><stop offset=".54" stop-color="#ffd500"/><stop offset=".83" stop-color="#ffed00"/><stop offset="1" stop-color="#fff600"/></linearGradient><style>.d{fill:#1a1626}</style></defs><path d="M916.02 458.01c0-63.15-11.88-122.4-35.64-177.73-23.76-55.34-56.64-104-98.63-146-41.99-41.99-90.66-74.87-146-98.63C580.4 11.88 521.16 0 458.01 0s-122.4 11.88-177.73 35.64c-55.34 23.76-104 56.64-146 98.63-41.99 41.99-74.87 90.66-98.63 146C11.88 335.61 0 394.86 0 458.01s11.88 122.4 35.64 177.73c23.76 55.34 56.64 104 98.63 146 41.99 41.99 90.66 74.87 146 98.63S394.85 916.02 458 916.02s122.4-11.88 177.73-35.65c55.34-23.76 104-56.64 146-98.63s74.87-90.66 98.63-146S916 521.16 916 458.01" style="fill:url(#b)"/><path d="M654.3 671.88c13.02 0 21.65-5.21 25.88-15.62 4.23-10.42 4.23-20.67 0-30.76s-12.86-15.14-25.88-15.14H261.72c-13.02 0-21.65 5.04-25.88 15.14-4.23 10.09-4.23 20.35 0 30.76 4.23 10.42 12.86 15.62 25.88 15.62zM366.21 382.08q0-32.22-17.58-54.69c-11.72-14.97-26.04-22.46-42.97-22.46s-31.41 7.49-43.46 22.46c-12.04 14.97-18.07 33.2-18.07 54.69s6.02 38.74 18.07 53.71c12.04 14.97 26.53 22.46 43.46 22.46s31.25-7.49 42.97-22.46 17.58-32.88 17.58-53.71M671.39 382.08q0-32.22-17.58-54.69c-11.72-14.97-26.04-22.46-42.97-22.46s-31.41 7.49-43.46 22.46c-12.04 14.97-18.07 33.2-18.07 54.69s6.02 38.74 18.07 53.71c12.04 14.97 26.53 22.46 43.46 22.46s31.25-7.49 42.97-22.46 17.58-32.88 17.58-53.71" class="d"/></svg>