<svg xmlns="http://www.w3.org/2000/svg" data-name="Layer 1" viewBox="0 0 916.02 916.02"><defs><linearGradient id="a" x1="458.01" x2="458.01" y1="1.98" y2="918" gradientTransform="matrix(1 0 0 -1 0 918)" gradientUnits="userSpaceOnUse"><stop offset="0" stop-color="#ff9500"/><stop offset=".19" stop-color="#ffad00"/><stop offset=".54" stop-color="#ffd500"/><stop offset=".83" stop-color="#ffed00"/><stop offset="1" stop-color="#fff600"/></linearGradient><linearGradient id="c" x1="213.69" x2="702.33" y1="330.11" y2="330.11" gradientTransform="matrix(1 0 0 -1 0 918)" gradientUnits="userSpaceOnUse"><stop offset="0" stop-color="#cfd7e6"/><stop offset=".04" stop-color="#dae0ec"/><stop offset=".13" stop-color="#eef1f6"/><stop offset=".22" stop-color="#fbfcfd"/><stop offset=".3" stop-color="#fff"/><stop offset=".7" stop-color="#fff"/><stop offset=".78" stop-color="#fbfcfd"/><stop offset=".87" stop-color="#eef1f6"/><stop offset=".96" stop-color="#dae0ec"/><stop offset="1" stop-color="#cfd7e6"/></linearGradient><linearGradient id="d" x1="244.26" x2="671.76" y1="200.71" y2="200.71" gradientTransform="matrix(1 0 0 -1 0 918)" gradientUnits="userSpaceOnUse"><stop offset="0" stop-color="#cfd7e6"/><stop offset=".04" stop-color="#dae0ec"/><stop offset=".13" stop-color="#eef1f6"/><stop offset=".22" stop-color="#fbfcfd"/><stop offset=".3" stop-color="#fff"/><stop offset=".7" stop-color="#fff"/><stop offset=".78" stop-color="#fbfcfd"/><stop offset=".87" stop-color="#eef1f6"/><stop offset=".96" stop-color="#dae0ec"/><stop offset="1" stop-color="#cfd7e6"/></linearGradient></defs><path d="M916.02 458.01c0-63.15-11.88-122.4-35.64-177.73-23.76-55.34-56.64-104-98.63-146-41.99-41.99-90.66-74.87-146-98.63C580.4 11.88 521.16 0 458.01 0s-122.4 11.88-177.73 35.64c-55.34 23.76-104 56.64-146 98.63-41.99 41.99-74.87 90.66-98.63 146C11.88 335.61 0 394.86 0 458.01s11.88 122.4 35.64 177.73c23.76 55.34 56.64 104 98.63 146 41.99 41.99 90.66 74.87 146 98.63S394.85 916.02 458 916.02s122.4-11.88 177.73-35.65c55.34-23.76 104-56.64 146-98.63s74.87-90.66 98.63-146S916 521.16 916 458.01" style="fill:url(#a)"/><path d="M209.96 414.06c32.55-42.32 61.85-63.48 87.89-63.48s55.34 21.16 87.89 63.48c5.21 5.86 11.39 7.32 18.55 4.39s9.77-7.65 7.81-14.16c-18.88-54.04-42.64-90.17-71.29-108.4s-57.29-18.23-85.94 0-52.41 54.36-71.29 108.4c-1.95 6.51.65 11.39 7.81 14.65s13.35 1.63 18.55-4.88m320.33 0c32.55-42.32 61.85-63.48 87.89-63.48s55.34 21.16 87.89 63.48c5.21 5.86 11.39 7.32 18.55 4.39s9.77-7.65 7.81-14.16c-18.88-54.04-42.64-90.17-71.29-108.4s-57.29-18.23-85.94 0-52.08 54.36-70.31 108.4c-2.6 6.51-.33 11.39 6.84 14.65 7.16 3.26 13.35 1.63 18.55-4.88M716.8 524.41c-31.25-5.21-68.52-9.93-111.82-14.16-43.29-4.23-92.29-6.35-146.97-6.35s-103.68 2.12-146.97 6.35-80.57 8.95-111.82 14.16c-15.62 2.6-27.51 8.95-35.64 19.04-8.14 10.09-11.56 21-10.25 32.72 4.56 79.43 31.58 135.58 81.05 168.46 49.48 32.88 124.02 49.32 223.63 49.32s174.15-16.44 223.63-49.32 76.5-89.03 81.05-168.46c1.3-11.72-2.12-22.62-10.25-32.72-8.14-10.09-20.02-16.44-35.65-19.04" style="fill:#1a1626"/><path d="M688.48 554.69c-4.56-1.95-25.88-5.86-63.97-11.72q-57.135-8.79-166.5-8.79c-109.365 0-128.42 2.93-166.5 8.79-38.09 5.86-59.41 9.77-63.96 11.72-3.91 1.3-7.32 3.58-10.25 6.84s-4.07 8.14-3.42 14.65c.65 8.46 2.77 18.39 6.35 29.78q5.37 17.085 7.32 22.95c1.3 4.56 3.91 7.65 7.81 9.28 3.91 1.63 7.16 2.44 9.77 2.44s14.32.16 35.16.49c20.83.33 46.88.49 78.12.49h198.73c31.58 0 57.78-.16 78.61-.49 20.83-.32 32.55-.49 35.16-.49 1.95 0 5.04-.98 9.28-2.93 4.23-1.95 7-4.88 8.3-8.79q1.95-5.865 6.84-22.95c3.26-11.39 5.53-21.32 6.84-29.78.65-6.51-.49-11.39-3.42-14.65s-6.35-5.53-10.25-6.84" style="fill:url(#c)"/><path d="M662.11 671.88h-408.2c-1.95 0-4.39 1.95-7.32 5.86s-3.09 8.79-.49 14.65q8.79 17.58 29.79 33.69t63.96 26.37c42.96 10.26 68.03 10.25 118.16 10.25s89.52-3.42 118.16-10.25 49.97-15.62 63.96-26.37q21-16.11 29.79-33.69c2.6-5.86 2.44-10.74-.49-14.65s-5.37-5.86-7.32-5.86" style="fill:url(#d)"/></svg>