<svg xmlns="http://www.w3.org/2000/svg" data-name="Layer 1" viewBox="0 0 916.02 916.02"><defs><linearGradient id="a" x1="458.01" x2="458.01" y1="1.98" y2="918" gradientTransform="matrix(1 0 0 -1 0 918)" gradientUnits="userSpaceOnUse"><stop offset="0" stop-color="#ff9500"/><stop offset=".19" stop-color="#ffad00"/><stop offset=".54" stop-color="#ffd500"/><stop offset=".83" stop-color="#ffed00"/><stop offset="1" stop-color="#fff600"/></linearGradient><linearGradient id="c" x1="213.87" x2="702.15" y1="345.73" y2="345.73" gradientTransform="matrix(1 0 0 -1 0 918)" gradientUnits="userSpaceOnUse"><stop offset="0" stop-color="#cfd7e6"/><stop offset=".04" stop-color="#dae0ec"/><stop offset=".13" stop-color="#eef1f6"/><stop offset=".22" stop-color="#fbfcfd"/><stop offset=".3" stop-color="#fff"/><stop offset=".7" stop-color="#fff"/><stop offset=".78" stop-color="#fbfcfd"/><stop offset=".87" stop-color="#eef1f6"/><stop offset=".96" stop-color="#dae0ec"/><stop offset="1" stop-color="#cfd7e6"/></linearGradient><linearGradient id="d" x1="632.12" x2="731.48" y1="483.35" y2="853.54" gradientTransform="matrix(1 0 0 -1 0 918)" gradientUnits="userSpaceOnUse"><stop offset="0" stop-color="#b023aa"/><stop offset="1" stop-color="#ff3bf6"/></linearGradient><linearGradient id="e" x1="289.51" x2="190.81" y1="483.29" y2="853.66" gradientTransform="matrix(1 0 0 -1 0 918)" gradientUnits="userSpaceOnUse"><stop offset="0" stop-color="#b023aa"/><stop offset="1" stop-color="#ff3bf6"/></linearGradient></defs><path d="M916.02 458.01c0-63.15-11.88-122.4-35.64-177.73-23.76-55.34-56.64-104-98.63-146-41.99-41.99-90.66-74.87-146-98.63C580.4 11.88 521.16 0 458.01 0s-122.4 11.88-177.73 35.64c-55.34 23.76-104 56.64-146 98.63-41.99 41.99-74.87 90.66-98.63 146C11.88 335.61 0 394.86 0 458.01s11.88 122.4 35.64 177.73c23.76 55.34 56.64 104 98.63 146 41.99 41.99 90.66 74.87 146 98.63S394.85 916.02 458 916.02s122.4-11.88 177.73-35.65c55.34-23.76 104-56.64 146-98.63s74.87-90.66 98.63-146S916 521.16 916 458.01" style="fill:url(#a)"/><path d="M690.43 524.41c-27.99-5.21-61.36-9.93-100.1-14.16s-82.84-6.35-132.32-6.35-93.75 2.12-132.81 6.35-72.27 8.95-99.61 14.16c-14.32 2.6-25.06 8.95-32.23 19.04-7.16 10.09-10.42 21-9.77 32.72 1.95 39.06 13.51 75.2 34.67 108.4s51.6 59.73 91.31 79.59q59.565 29.79 148.44 29.79c88.875 0 108.72-9.93 148.44-29.79 39.71-19.86 70.15-46.39 91.31-79.59s32.72-69.34 34.67-108.4c.65-11.72-2.6-22.62-9.77-32.72-7.16-10.09-17.9-16.44-32.23-19.04" style="fill:#1a1626"/><path d="M328.12 732.42s5.7 2.6 17.09 7.81 27.02 10.25 46.88 15.14c19.86 4.88 41.83 7.32 65.92 7.32s45.9-2.44 65.43-7.32 35.16-9.93 46.88-15.14 17.58-7.81 17.58-7.81l-14.16-10.74c-9.44-7.16-23.93-13.51-43.46-19.04s-43.62-5.7-72.27-.49c-28.65-5.21-52.73-5.04-72.27.49-19.53 5.53-34.02 11.88-43.46 19.04z" style="fill:#fd7383"/><path d="M679.69 552.73c-19.53-3.26-48.66-7.16-87.4-11.72q-58.11-6.84-134.28-6.84c-76.17 0-95.54 2.28-134.28 6.84s-67.87 8.46-87.4 11.72c-11.72 2.6-18.55 6.67-20.51 12.21q-2.925 8.295 0 22.95c1.3 9.11 3.09 15.14 5.37 18.07s7.98 4.4 17.09 4.4h439.45c9.11 0 14.81-1.46 17.09-4.4 2.28-2.93 4.07-8.95 5.37-18.07q2.925-14.655 0-22.95c-1.95-5.53-8.79-9.6-20.51-12.21" style="fill:url(#c)"/><path d="M880.86 250 762.7 199.22 737.31 73.24c-.65-5.21-2.6-8.14-5.86-8.79s-6.51.98-9.77 4.88l-83.98 95.7-127.93-14.65c-5.21-.65-8.63.32-10.25 2.93q-2.445 3.9 1.47 10.74l65.43 110.35-53.71 116.21q-2.925 6.84 0 10.74c2.925 3.9 5.53 3.26 10.74 1.95l125-28.32 93.75 87.89c3.91 3.26 7.32 4.23 10.25 2.93q4.395-1.95 5.37-8.79l11.72-127.93 112.3-62.5c3.91-2.6 5.86-5.53 5.86-8.79s-2.28-5.86-6.84-7.81" style="fill:url(#d)"/><path d="m412.11 150.39-126.95 15.62-84.96-96.68c-3.25-3.91-6.35-5.37-9.28-4.39s-5.04 3.74-6.35 8.3l-25.39 125.98L41.99 250c-4.56 1.95-7 4.56-7.32 7.81-.33 3.26 1.79 6.18 6.35 8.79l111.33 62.5 11.72 127.93q.975 6.84 5.37 8.79c2.93 1.3 6.35.33 10.25-2.93l94.73-86.91 125 28.32c4.56.65 7.81-.16 9.77-2.44 1.95-2.28 1.95-5.7 0-10.25l-53.71-117.19 65.43-110.35c2.6-4.56 3.09-8.14 1.46-10.74s-5.05-3.58-10.25-2.93" style="fill:url(#e)"/></svg>