<svg data-name="Layer 1" xmlns="http://www.w3.org/2000/svg" style="" viewBox="0 0 546.13 512"><g class="nc-icon-wrapper"><defs><linearGradient id="1779838974437-2140325_linear-gradient" x1="273.07" y1="566" x2="273.07" y2="54" gradientTransform="translate(0 -54)" gradientUnits="userSpaceOnUse"><stop offset="0" stop-color="#ff9500"></stop><stop offset=".19" stop-color="#ffad00"></stop><stop offset=".55" stop-color="#ffd500"></stop><stop offset=".83" stop-color="#ffed00"></stop><stop offset="1" stop-color="#fff600"></stop></linearGradient><radialGradient id="1779838974437-2140325_radial-gradient" cx="121.09" cy="336.71" fx="121.09" fy="336.71" r="93.87" gradientTransform="translate(0 -54)" gradientUnits="userSpaceOnUse"><stop offset="0" stop-color="#ff6399" stop-opacity=".55"></stop><stop offset=".2" stop-color="#ff6596" stop-opacity=".44"></stop><stop offset=".36" stop-color="#ff6c8c" stop-opacity=".35"></stop><stop offset=".51" stop-color="#ff767b" stop-opacity=".27"></stop><stop offset=".65" stop-color="#ff8663" stop-opacity=".19"></stop><stop offset=".79" stop-color="#ff9a44" stop-opacity=".12"></stop><stop offset=".92" stop-color="#ffb21f" stop-opacity=".05"></stop><stop offset="1" stop-color="#ffc403" stop-opacity="0"></stop></radialGradient><radialGradient id="1779838974437-2140325_radial-gradient-2" cx="425.05" cy="336.71" fx="425.05" fy="336.71" r="93.87" gradientTransform="translate(0 -54)" gradientUnits="userSpaceOnUse"><stop offset="0" stop-color="#ff6399" stop-opacity=".55"></stop><stop offset=".2" stop-color="#ff6596" stop-opacity=".44"></stop><stop offset=".36" stop-color="#ff6c8c" stop-opacity=".35"></stop><stop offset=".51" stop-color="#ff767b" stop-opacity=".27"></stop><stop offset=".65" stop-color="#ff8663" stop-opacity=".19"></stop><stop offset=".79" stop-color="#ff9a44" stop-opacity=".12"></stop><stop offset=".92" stop-color="#ffb21f" stop-opacity=".05"></stop><stop offset="1" stop-color="#ffc403" stop-opacity="0"></stop></radialGradient><linearGradient id="1779838974437-2140325_linear-gradient-2" x1="-290.93" y1="-522" x2="-290.93" y2="-266" gradientTransform="matrix(1 0 0 -1 564 -266)" gradientUnits="userSpaceOnUse"><stop offset=".64" stop-color="#ffe81a" stop-opacity="0"></stop><stop offset=".88" stop-color="#ff9500"></stop></linearGradient><linearGradient id="1779838974437-2140325_linear-gradient-3" x1="-290.93" y1="-402.52" x2="-290.93" y2="-266" gradientTransform="matrix(1 0 0 -1 564 -266)" gradientUnits="userSpaceOnUse"><stop offset=".01" stop-color="#0174c7"></stop><stop offset=".81" stop-color="#00d0ff"></stop></linearGradient></defs><circle class="cls-6" cx="273.07" cy="256" r="256" fill="url(#1779838974437-2140325_linear-gradient)"></circle><circle class="cls-5" cx="121.09" cy="282.71" r="93.87" fill="url(#1779838974437-2140325_radial-gradient)"></circle><circle class="cls-1" cx="425.05" cy="282.71" r="93.87" fill="url(#1779838974437-2140325_radial-gradient-2)"></circle><path class="cls-4" d="M379.9,299.69c-65.11,49.75-148.74,49.66-213.76,0-9.22-7-14.76.6-11.78,6.57,49.92,101.29,187.39,101.29,237.31,0,2.99-5.97-2.47-13.57-11.78-6.57Z" fill="#1a1626"></path><path class="cls-4" d="M134.31,214.19c36.44-47.1,61.95-47.1,98.39,0,5.55,7.08,16.81,1.79,14.51-5.12-30.98-91.14-96.43-91.14-127.4,0-2.39,7,8.96,12.29,14.51,5.12h0Z" fill="#1a1626"></path><path class="cls-4" d="M313.51,214.19c36.44-47.1,61.95-47.1,98.39,0,5.55,7.08,16.81,1.79,14.51-5.12-30.98-91.14-96.43-91.14-127.4,0-2.39,7,8.96,12.29,14.51,5.12Z" fill="#1a1626"></path><path class="cls-3" d="M273.07,0C131.67,0,17.07,114.6,17.07,256h512C529.07,114.6,414.46,0,273.07,0Z" fill="url(#1779838974437-2140325_linear-gradient-2)"></path><path class="cls-2" d="M546.13,68.27C546.13,30.55,423.85,0,273.07,0S0,30.55,0,68.27c0,16.38,23.21,31.49,61.87,43.26,4.95-7.17,10.24-14.17,15.87-20.82-16.81-5.46-26.54-11.61-26.54-18.18,0-21.16,99.33-38.4,221.87-38.4s221.87,17.24,221.87,38.4c0,6.57-9.73,12.71-26.54,18.18,5.63,6.66,10.92,13.65,15.87,20.82,38.66-11.78,61.87-26.88,61.87-43.26h0Z" fill="url(#1779838974437-2140325_linear-gradient-3)"></path></g></svg>