<svg data-name="Layer 1" xmlns="http://www.w3.org/2000/svg" style="" viewBox="0 0 512 512"><g class="nc-icon-wrapper"><defs><linearGradient id="1779839781094-5119869_linear-gradient" x1="256" y1="566" x2="256" y2="54" gradientTransform="translate(0 -54)" gradientUnits="userSpaceOnUse"><stop offset="0" stop-color="#ff9500"></stop><stop offset=".19" stop-color="#ffad00"></stop><stop offset=".55" stop-color="#ffd500"></stop><stop offset=".83" stop-color="#ffed00"></stop><stop offset="1" stop-color="#fff600"></stop></linearGradient><linearGradient id="1779839781094-5119869_linear-gradient-2" x1="119.53" y1="374" x2="392.45" y2="374" gradientTransform="translate(0 -54)" gradientUnits="userSpaceOnUse"><stop offset="0" stop-color="#cfd7e6"></stop><stop offset=".04" stop-color="#dae0ec"></stop><stop offset=".13" stop-color="#eef1f6"></stop><stop offset=".21" stop-color="#fbfcfd"></stop><stop offset=".3" stop-color="#fff"></stop><stop offset=".7" stop-color="#fff"></stop><stop offset=".79" stop-color="#fbfcfd"></stop><stop offset=".87" stop-color="#eef1f6"></stop><stop offset=".96" stop-color="#dae0ec"></stop><stop offset="1" stop-color="#cfd7e6"></stop></linearGradient><linearGradient id="1779839781094-5119869_linear-gradient-3" x1="496.53" y1="-163.86" x2="496.53" y2="-378.32" gradientTransform="rotate(15 -1120.759 -503.715)" gradientUnits="userSpaceOnUse"><stop offset="0" stop-color="#b023aa"></stop><stop offset="1" stop-color="#ff3bf6"></stop></linearGradient><linearGradient id="1779839781094-5119869_linear-gradient-4" x1="-82.4" y1="679.26" x2="-82.4" y2="464.82" gradientTransform="rotate(-15 -1616.356 -467.106)" gradientUnits="userSpaceOnUse"><stop offset="0" stop-color="#b023aa"></stop><stop offset="1" stop-color="#ff3bf6"></stop></linearGradient></defs><circle class="cls-6" cx="256" cy="256" r="256" fill="url(#1779839781094-5119869_linear-gradient)"></circle><path class="cls-5" d="M386.05,292.95c-31.06-5.8-74.84-11.35-130.05-11.35s-99.07,5.55-130.13,11.35c-15.7,2.9-24.23,15.96-23.47,29.1,3.84,66.13,54.61,121.69,153.6,121.69s149.76-55.55,153.6-121.77c.68-13.14-7.85-26.11-23.55-29.01h0Z" fill="#1a1626"></path><path class="cls-1" d="M183.21,409.6s32.34,17.07,72.79,17.07,72.79-17.07,72.79-17.07c0,0-24.23-25.6-72.79-17.07-48.47-8.53-72.79,17.07-72.79,17.07h0Z" fill="#fd7383"></path><path class="cls-4" d="M379.82,309.25c-21.42-3.84-66.73-10.58-123.82-10.58s-102.4,6.74-123.82,10.58c-13.4,2.39-13.65,8.28-11.86,19.46,1.54,9.81,2.65,12.37,12.97,12.54,9.56.17,122.71,0,122.71,0,0,0,113.15.17,122.71,0,10.41-.17,11.43-2.73,12.97-12.54,1.79-11.18,1.45-16.98-11.86-19.46h0Z" fill="url(#1779839781094-5119869_linear-gradient-2)"></path><path class="cls-3" d="M492.29,139.61l-65.88-28.33-13.99-70.4c-1.11-5.55-5.03-6.66-8.79-2.39l-47.36,53.93-71.25-8.45c-5.63-.68-7.85,2.82-4.95,7.68l36.69,61.7-30.04,65.19c-2.39,5.12.17,8.36,5.72,7.08l69.97-15.79,52.74,48.73c4.18,3.84,8.02,2.39,8.53-3.24l6.57-71.42,62.55-35.07c4.86-2.9,4.69-7-.51-9.22Z" fill="url(#1779839781094-5119869_linear-gradient-3)"></path><path class="cls-2" d="M230.49,84.05l-71.25,8.45-47.36-53.93c-3.75-4.27-7.68-3.24-8.79,2.39l-13.99,70.4-65.88,28.33c-5.21,2.22-5.46,6.31-.51,9.13l62.55,35.07,6.57,71.42c.51,5.63,4.35,7.08,8.53,3.24l52.74-48.64,69.97,15.79c5.55,1.28,8.11-1.96,5.72-7.08l-30.04-65.19,36.69-61.7c2.9-4.95.68-8.36-4.95-7.68h0Z" fill="url(#1779839781094-5119869_linear-gradient-4)"></path></g></svg>