<svg data-name="Layer 1" xmlns="http://www.w3.org/2000/svg" style="" viewBox="0 0 512 512"><g class="nc-icon-wrapper"><defs><linearGradient id="1779839564587-7368214_linear-gradient" x1="312" y1="-1158" x2="312" y2="-646" gradientTransform="matrix(1 0 0 -1 -56 -646)" gradientUnits="userSpaceOnUse"><stop offset="0" stop-color="red"></stop><stop offset="1" stop-color="#ffc000"></stop></linearGradient></defs><circle class="cls-2" cx="256" cy="256" r="256" fill="url(#1779839564587-7368214_linear-gradient)"></circle><ellipse class="cls-1" cx="170.67" cy="248.08" rx="34.13" ry="42.67" fill="#1a1626"></ellipse><ellipse class="cls-1" cx="341.33" cy="248.08" rx="34.13" ry="42.67" fill="#1a1626"></ellipse><path class="cls-1" d="M195.35,403.02c31.26-21.96,87.55-23.42,121.3,0,7.82,5.4,20.77,1.65,17.87-4.67-29.5-64.32-127.59-64.18-157.03,0-2.91,6.31,10.08,10.11,17.86,4.67h0Z" fill="#1a1626"></path><path class="cls-3" d="M177.15,144.09c-93.99-24.12-63.9,21.09,13.01,51.17,43.39,16.97,48.87-35.31-13.01-51.17Z" fill="#c92400"></path><path class="cls-3" d="M334.83,144.22c-61.87,15.86-56.4,68.14-13,51.16,76.93-30.08,107.02-75.3,13-51.16Z" fill="#c92400"></path></g></svg>